# xmcd
#
# Track frame offsets:
#	150
#	27855
#	51150
#	72828
#	93714
#	113715
#	135813
#	153582
#	172707
#	194892
#	215673
#	236379
#	254997
#	277695
#	299832
#
# Disc length: 4304 seconds
#
# Revision: 0
# Processed by: cddbd v1.5.2PL0 Copyright (c) Steve Scherf et al.
# Submitted via: EasyCDDAExtractor 12.0.7.1
#
DISCID=e110ce0f
DTITLE=STEVIE B - THE BEST OF STEVIE B-COLLECTION [PANDISC]2001/19/04/2010
DYEAR=2001
DGENRE=FUNK MELODY
TTITLE0=SPRING LOVE (MELÔ DA PRIMAVERA) AO VIVO (BY DJ GILMAR SINISTRO)
TTITLE1=IN MY EYES (BY DJ GILMAR SINISTRO)
TTITLE2=PUMP THAT BODY (BY DJ GILMAR SINISTRO)
TTITLE3=COME WITH ME (BY DJ GILMAR SINISTRO)
TTITLE4=PARTY YOUR BODY (MELÔ DO PARE) (BY DJ GILMAR SINISTRO)
TTITLE5=FUNK MELODY (BY DJ GILMAR SINISTRO)
TTITLE6=CRYING OUT (BY DJ GILMAR SINISTRO)
TTITLE7=RUNNING BACK (BY DJ GILMAR SINISTRO)
TTITLE8=I WANNA BE THE ONE (BY DJ GILMAR SINISTRO)
TTITLE9=GIRL I AM SEARCHING FOR YOU (BY DJ GILMAR SINISTRO)
TTITLE10=SUMMER NIGHTS (TRIP TO CALIFORNIA MIX) (BY DJ GILMAR SINISTRO)
TTITLE11=DREAMING OF LOVE (BY DJ GILMAR SINISTRO)
TTITLE12=I NEED YOU (BY DJ GILMAR SINISTRO)
TTITLE13=BECAUSE I LOVE YOU (BY DJ GILMAR SINISTRO)
TTITLE14=MEDLEY MEGAMIX (RADIO VERSION) (BY DJ GILMAR SINISTRO)
EXTD=YEAR: 2001  ID3G:  17\n
EXTT0=
EXTT1=
EXTT2=
EXTT3=
EXTT4=
EXTT5=
EXTT6=
EXTT7=
EXTT8=
EXTT9=
EXTT10=
EXTT11=
EXTT12=
EXTT13=
EXTT14=
PLAYORDER=
